<?xml version="1.0" standalone="no"?>
<!DOCTYPE svg PUBLIC "-//W3C//DTD SVG 20010904//EN"
 "http://www.w3.org/TR/2001/REC-SVG-20010904/DTD/svg10.dtd">
<svg version="1.0" xmlns="http://www.w3.org/2000/svg"
 width="512.000000pt" height="512.000000pt" viewBox="0 0 512.000000 512.000000"
 preserveAspectRatio="xMidYMid meet">
<metadata>
Created by potrace 1.16, written by Peter Selinger 2001-2019
</metadata>
<g transform="translate(0.000000,512.000000) scale(0.100000,-0.100000)"
fill="#000000" stroke="none">
<path d="M0 2560 l0 -2560 2560 0 2560 0 0 1403 c0 1373 -1 1401 -19 1362 -23
-49 -74 -99 -123 -119 -50 -21 -153 -20 -200 2 -21 9 -136 107 -255 218 -526
485 -1003 899 -1463 1270 -349 281 -381 299 -518 293 -125 -6 -156 -26 -620
-405 -358 -293 -953 -810 -1227 -1068 -38 -36 -73 -66 -77 -66 -4 0 -9 145
-10 323 l-3 322 35 33 c79 76 397 356 605 533 491 418 822 677 940 734 140 68
195 80 375 80 290 0 367 -39 820 -404 420 -339 876 -732 1350 -1165 273 -249
351 -328 371 -371 18 -39 19 -18 19 1053 l0 1092 -2560 0 -2560 0 0 -2560z
m4331 2440 c34 -7 63 -20 82 -38 59 -54 59 -56 65 -559 3 -255 2 -463 -2 -463
-4 0 -107 87 -229 193 -122 105 -289 248 -371 316 l-149 125 6 154 c7 170 18
207 70 244 17 12 49 25 71 29 66 11 399 10 457 -1z m-1614 -932 c411 -320 959
-789 1477 -1263 120 -110 257 -235 304 -278 46 -42 102 -87 123 -99 l39 -22 0
-165 c0 -262 -18 -703 -40 -984 -33 -414 -41 -460 -110 -596 -109 -218 -311
-391 -535 -460 -65 -20 -285 -46 -575 -66 l-95 -7 8 248 c9 274 1 1080 -12
1241 -11 127 -45 208 -121 283 -109 110 -217 133 -620 133 -403 0 -511 -23
-620 -133 -74 -73 -110 -156 -121 -277 -13 -151 -21 -969 -12 -1246 7 -227 7
-247 -9 -247 -31 0 -393 30 -488 40 -108 12 -211 40 -285 77 -155 79 -313 226
-389 365 l-26 46 0 929 0 928 49 45 c779 714 1199 1078 1714 1483 192 152 182
151 344 25z m-2107 -1192 c0 -3 -4 -8 -10 -11 -5 -3 -10 -1 -10 4 0 6 5 11 10
11 6 0 10 -2 10 -4z m2285 -1126 c62 -8 74 -13 101 -43 31 -33 32 -39 40 -153
14 -197 10 -1395 -4 -1421 l-13 -23 -459 0 -459 0 -13 22 c-14 27 -18 1226 -4
1421 8 112 10 121 38 153 18 20 43 36 64 40 120 22 542 25 709 4z"/>
</g>
</svg>
