<svg id="svg" version="1.1" xmlns="http://www.w3.org/2000/svg" xmlns:xlink="http://www.w3.org/1999/xlink" width="400" height="400" viewBox="0, 0, 400,400"><g id="svgg"><path id="path0" d="M216.094 113.750 C 215.836 114.008,215.625 114.676,215.625 115.234 C 215.625 115.793,215.836 116.461,216.094 116.719 C 217.252 117.877,219.531 117.010,219.531 115.412 C 219.531 113.766,217.203 112.641,216.094 113.750 M232.497 122.162 C 235.588 125.632,236.447 128.528,234.796 129.917 C 233.197 131.263,233.097 133.724,234.570 135.476 C 235.810 136.949,235.796 137.359,234.402 140.434 C 229.898 150.365,220.875 158.350,199.640 171.196 C 179.899 183.138,172.934 190.780,174.957 198.280 C 175.964 202.013,180.430 205.416,185.156 206.049 L 186.914 206.285 184.570 205.113 C 174.520 200.087,175.632 192.529,187.781 183.289 C 191.062 180.793,196.473 177.297,205.926 171.564 C 224.142 160.517,234.041 150.628,237.401 140.122 C 238.243 137.492,238.677 136.701,239.556 136.197 C 242.550 134.479,241.979 129.704,238.702 129.049 C 237.895 128.887,237.396 128.373,236.740 127.021 C 235.618 124.711,233.882 122.520,232.297 121.411 L 231.055 120.542 232.497 122.162 M222.266 127.638 C 222.266 127.881,222.444 128.189,222.662 128.324 C 223.362 128.757,224.621 131.596,225.001 133.601 C 226.921 143.721,214.679 154.968,187.891 167.697 C 156.883 182.431,147.091 196.475,159.030 209.091 L 160.962 211.133 159.434 208.703 C 151.200 195.611,158.815 186.217,190.511 170.367 C 218.951 156.146,228.840 146.553,226.961 135.008 C 226.482 132.069,222.266 125.450,222.266 127.638 M216.558 136.886 C 216.039 138.238,216.574 139.255,217.868 139.380 C 219.402 139.528,220.439 138.007,219.541 136.926 C 218.915 136.172,216.843 136.144,216.558 136.886 M208.817 145.536 C 207.745 146.607,208.610 148.211,210.138 147.986 C 211.552 147.778,212.036 146.701,211.154 145.726 C 210.282 144.763,209.642 144.711,208.817 145.536 M189.673 153.048 C 189.163 154.654,190.423 155.814,191.849 155.050 C 193.160 154.349,192.685 152.568,191.147 152.419 C 190.208 152.328,189.853 152.479,189.673 153.048 M174.396 163.849 C 173.225 165.021,173.184 165.979,174.247 167.330 C 175.653 169.118,178.906 167.927,178.906 165.625 C 178.906 163.384,176.004 162.241,174.396 163.849 M152.813 170.781 C 151.567 172.026,153.111 173.891,154.688 173.047 C 156.018 172.335,155.440 170.313,153.906 170.313 C 153.563 170.313,153.070 170.523,152.813 170.781 M165.458 200.223 C 163.424 202.257,166.166 205.289,168.776 203.893 C 170.582 202.926,169.352 199.609,167.188 199.609 C 166.574 199.609,165.795 199.886,165.458 200.223 M173.693 210.089 C 172.234 211.702,173.613 214.844,175.781 214.844 C 177.004 214.844,178.516 213.316,178.516 212.081 C 178.516 209.745,175.232 208.389,173.693 210.089 M186.141 215.086 C 185.380 215.848,185.494 216.752,186.426 217.339 C 187.779 218.191,189.303 216.271,188.266 215.020 C 187.651 214.279,186.926 214.302,186.141 215.086 M119.140 246.334 L 119.141 261.612 122.058 261.680 L 124.975 261.748 125.085 257.143 L 125.195 252.539 129.102 252.442 L 133.008 252.344 136.016 257.031 L 139.024 261.719 142.168 261.719 C 145.986 261.719,145.985 262.089,142.188 256.470 C 138.637 251.215,138.696 251.384,140.137 250.629 C 145.611 247.762,146.701 239.335,142.195 234.722 C 139.278 231.736,137.659 231.344,127.617 231.187 L 119.140 231.055 119.140 246.334 M210.938 235.547 L 210.938 238.672 208.984 238.672 L 207.031 238.672 207.031 240.820 L 207.031 242.969 208.946 242.969 L 210.862 242.969 211.007 249.902 C 211.161 257.286,211.371 258.198,213.342 260.033 C 215.299 261.854,219.845 262.419,222.754 261.200 C 224.429 260.499,224.425 260.511,223.610 258.118 L 223.001 256.331 221.476 256.930 C 217.774 258.384,216.797 256.688,216.797 248.810 L 216.797 242.969 219.922 242.969 L 223.047 242.969 223.047 240.820 L 223.047 238.672 219.922 238.672 L 216.797 238.672 216.797 235.547 L 216.797 232.422 213.867 232.422 L 210.938 232.422 210.938 235.547 M136.248 236.847 C 138.288 237.942,139.132 239.632,138.962 242.280 C 138.692 246.479,136.665 247.656,129.700 247.656 L 125.000 247.656 125.000 241.758 L 125.000 235.859 129.980 236.007 C 133.786 236.121,135.265 236.319,136.248 236.847 M158.075 238.425 C 147.351 241.450,146.787 256.977,157.258 260.922 C 161.789 262.629,168.024 261.639,171.145 258.717 L 172.173 257.755 170.579 256.267 L 168.984 254.780 167.431 255.808 C 163.428 258.457,155.469 256.034,155.469 252.168 C 155.469 252.050,159.623 251.953,164.701 251.953 L 173.933 251.953 173.742 249.316 C 173.146 241.122,166.036 236.179,158.075 238.425 M190.234 238.496 C 189.053 238.825,187.437 239.614,186.644 240.250 C 184.808 241.722,184.766 241.713,184.766 239.844 L 184.766 238.281 182.025 238.281 L 179.285 238.281 179.389 249.902 L 179.492 261.523 182.324 261.638 L 185.156 261.753 185.156 254.983 C 185.156 246.018,186.756 242.937,191.391 242.977 C 195.956 243.017,197.037 245.148,197.199 254.427 L 197.327 261.784 200.129 261.623 L 202.930 261.462 203.037 254.699 C 203.257 240.767,199.441 235.937,190.234 238.496 M165.279 243.431 C 166.683 244.221,168.359 246.693,168.359 247.975 C 168.359 248.313,166.619 248.438,161.914 248.438 C 158.177 248.438,155.469 248.284,155.469 248.072 C 155.469 243.989,161.334 241.214,165.279 243.431 " stroke="none" fill="#274867" fill-rule="evenodd"></path><path id="path1" d="M0.000 200.000 L 0.000 400.000 200.000 400.000 L 400.000 400.000 400.000 200.000 L 400.000 0.000 200.000 0.000 L 0.000 0.000 0.000 200.000 M210.138 111.893 C 211.022 112.957,210.481 114.245,209.095 114.379 C 208.026 114.483,207.802 114.352,207.587 113.495 C 207.145 111.734,209.026 110.552,210.138 111.893 M218.963 113.849 C 220.524 115.410,219.722 117.578,217.584 117.578 C 215.392 117.578,214.452 115.236,216.016 113.672 C 217.047 112.641,217.800 112.686,218.963 113.849 M203.590 120.622 C 204.946 121.652,209.043 124.761,212.695 127.532 C 216.348 130.303,220.639 133.626,222.232 134.917 L 225.127 137.264 224.871 134.806 C 224.548 131.723,223.549 129.434,221.729 127.615 C 219.853 125.739,219.939 125.485,221.973 126.893 C 227.637 130.813,229.059 137.875,225.578 144.796 C 221.422 153.058,211.547 160.239,188.477 171.775 C 168.812 181.607,161.998 186.580,158.527 193.631 C 155.828 199.113,156.934 206.017,161.253 210.645 C 163.170 212.698,161.215 211.758,159.162 209.639 C 151.948 202.191,152.706 192.681,161.201 184.047 L 164.027 181.175 163.856 178.185 C 163.763 176.541,163.683 171.372,163.679 166.699 L 163.672 158.203 157.129 158.197 C 146.748 158.188,146.794 157.950,158.887 149.137 L 167.969 142.518 167.969 134.572 C 167.969 124.381,167.307 125.391,173.987 125.391 C 180.643 125.391,180.469 125.278,180.469 129.570 C 180.469 133.527,179.790 133.656,186.635 128.397 C 201.298 117.131,199.861 117.790,203.590 120.622 M233.810 122.461 C 234.742 123.394,236.058 125.137,236.735 126.336 C 237.412 127.535,238.230 128.516,238.553 128.516 C 242.081 128.516,242.745 135.425,239.338 136.685 C 238.794 136.886,238.383 137.633,238.012 139.094 C 235.090 150.591,223.353 161.911,200.781 175.003 C 199.170 175.938,196.138 177.830,194.043 179.209 L 190.234 181.716 190.234 194.418 L 190.234 207.121 188.064 206.850 C 173.687 205.054,170.084 195.681,179.784 185.310 C 183.634 181.194,188.850 177.456,200.977 170.118 C 221.107 157.939,230.952 148.907,234.566 139.306 L 235.552 136.686 234.535 135.811 C 232.853 134.364,232.777 131.762,234.365 129.954 L 235.615 128.531 234.940 126.499 C 234.462 125.060,233.597 123.781,231.976 122.114 C 230.717 120.820,229.688 119.704,229.688 119.636 C 229.688 119.192,232.400 121.051,233.810 122.461 M226.607 120.727 C 227.665 121.293,228.194 122.815,227.743 124.000 C 226.700 126.745,222.656 125.912,222.656 122.952 C 222.656 120.754,224.606 119.656,226.607 120.727 M244.352 151.196 C 253.211 157.688,253.136 158.129,243.136 158.291 L 236.523 158.398 236.472 182.198 C 236.424 204.771,236.384 206.024,235.707 206.520 C 235.139 206.935,232.468 207.021,222.672 206.939 L 210.352 206.836 210.156 193.927 C 209.982 182.396,209.887 180.905,209.263 179.955 C 208.393 178.627,205.586 176.563,204.652 176.563 C 202.901 176.563,203.900 175.636,208.889 172.635 C 222.394 164.511,231.236 156.864,236.059 149.137 C 238.041 145.962,236.785 145.650,244.352 151.196 M155.292 170.872 C 156.161 172.198,155.481 173.438,153.884 173.438 C 152.272 173.438,151.493 171.858,152.538 170.705 C 153.489 169.654,154.536 169.718,155.292 170.872 M199.219 185.547 L 199.219 188.281 196.680 188.281 L 194.141 188.281 194.141 185.547 L 194.141 182.813 196.680 182.813 L 199.219 182.813 199.219 185.547 M206.641 185.547 L 206.641 188.281 204.102 188.281 L 201.563 188.281 201.563 185.547 L 201.563 182.813 204.102 182.813 L 206.641 182.813 206.641 185.547 M171.678 185.795 C 173.431 186.468,173.018 189.428,171.085 190.042 C 169.843 190.436,168.359 189.275,168.359 187.910 C 168.359 186.036,169.842 185.091,171.678 185.795 M199.219 192.969 L 199.219 195.703 196.582 195.704 L 193.945 195.705 194.075 193.187 C 194.219 190.403,194.108 190.486,197.949 190.297 L 199.219 190.234 199.219 192.969 M206.641 192.969 L 206.641 195.703 204.102 195.703 L 201.563 195.703 201.563 192.969 L 201.563 190.234 204.102 190.234 L 206.641 190.234 206.641 192.969 M169.067 200.015 C 170.770 201.602,169.647 204.688,167.365 204.688 C 166.818 204.688,165.939 204.256,165.412 203.729 C 162.933 201.250,166.501 197.625,169.067 200.015 M177.724 209.756 C 178.867 210.898,179.104 212.335,178.343 213.497 C 177.057 215.460,174.616 215.514,173.282 213.610 C 171.311 210.796,175.302 207.334,177.724 209.756 M188.742 215.428 C 189.257 216.558,188.321 217.969,187.058 217.969 C 185.961 217.969,184.998 216.259,185.533 215.261 C 186.177 214.057,188.165 214.160,188.742 215.428 M234.383 227.934 C 237.078 229.328,237.041 232.801,234.316 234.210 C 231.822 235.500,228.516 233.761,228.516 231.159 C 228.516 228.125,231.539 226.463,234.383 227.934 M254.643 228.543 C 257.321 229.117,257.534 229.480,256.770 232.166 C 256.202 234.163,256.052 234.361,255.314 234.093 C 252.462 233.056,250.000 234.301,250.000 236.779 L 250.000 238.281 253.125 238.281 L 256.250 238.281 256.250 240.820 L 256.250 243.359 253.125 243.359 L 250.000 243.359 250.000 252.539 L 250.000 261.719 246.875 261.719 L 243.750 261.719 243.750 252.560 L 243.750 243.402 241.895 243.283 L 240.039 243.164 240.039 240.820 L 240.039 238.477 241.895 238.358 L 243.750 238.238 243.750 236.756 C 243.750 232.600,246.210 229.510,250.280 228.551 C 252.319 228.071,252.444 228.071,254.643 228.543 M138.712 231.911 C 143.926 234.301,146.447 239.671,144.918 245.130 C 144.386 247.032,141.553 250.558,140.217 250.982 C 139.085 251.341,139.180 251.569,142.578 256.641 C 146.426 262.384,146.435 262.109,142.403 262.109 C 138.595 262.109,139.017 262.454,135.120 256.160 L 133.008 252.750 129.199 252.742 L 125.391 252.734 125.391 257.227 L 125.391 261.719 122.070 261.719 L 118.750 261.719 118.750 246.258 L 118.750 230.796 127.832 230.942 C 136.062 231.073,137.083 231.164,138.712 231.911 M217.106 235.254 L 217.220 238.281 220.329 238.281 L 223.438 238.281 223.438 240.820 L 223.438 243.359 220.313 243.359 L 217.188 243.359 217.188 249.414 C 217.188 256.962,218.193 258.437,221.990 256.457 C 222.977 255.942,223.105 255.952,223.317 256.557 C 223.447 256.925,223.791 257.819,224.081 258.544 C 224.830 260.412,224.794 260.501,222.949 261.339 C 219.655 262.834,214.778 262.069,212.624 259.719 C 211.161 258.124,210.938 256.832,210.938 249.975 L 210.938 243.359 208.984 243.359 L 207.031 243.359 207.031 240.820 L 207.031 238.281 208.984 238.281 L 210.938 238.281 210.938 235.140 L 210.938 231.998 213.965 232.112 L 216.992 232.227 217.106 235.254 M125.391 241.827 L 125.391 247.326 130.695 247.198 L 136.000 247.070 137.379 245.564 C 138.706 244.115,138.752 243.965,138.600 241.583 C 138.327 237.297,136.722 236.328,129.895 236.328 L 125.391 236.328 125.391 241.827 M164.532 237.938 C 170.219 239.142,173.338 242.879,174.028 249.318 L 174.310 251.953 165.085 251.953 C 154.659 251.953,154.612 251.970,157.333 254.691 C 160.122 257.480,164.132 257.719,167.685 255.308 L 169.057 254.377 170.738 256.091 L 172.420 257.804 171.320 258.952 C 168.775 261.608,162.785 262.816,158.430 261.549 C 143.054 257.080,148.858 234.621,164.532 237.938 M185.081 239.537 L 185.202 240.988 186.723 239.886 C 191.686 236.290,199.452 237.561,201.932 242.374 C 202.901 244.256,202.933 244.561,203.048 253.015 L 203.167 261.719 200.021 261.719 L 196.875 261.719 196.853 254.785 C 196.822 245.046,196.099 243.555,191.406 243.555 C 186.518 243.555,185.547 245.418,185.547 254.795 L 185.547 261.750 182.324 261.637 L 179.102 261.523 178.971 250.271 C 178.813 236.762,178.541 237.826,182.123 237.971 L 184.961 238.086 185.081 239.537 M282.521 238.120 C 283.218 238.817,271.144 265.975,269.328 267.797 C 266.639 270.494,261.985 271.070,258.253 269.166 C 256.361 268.201,256.348 268.129,257.605 265.648 L 258.570 263.744 260.047 264.514 C 262.479 265.782,265.260 265.033,266.462 262.786 C 266.748 262.252,266.186 260.582,264.096 255.750 C 262.588 252.265,260.294 246.965,258.997 243.972 C 257.701 240.978,256.641 238.474,256.641 238.405 C 256.641 238.337,258.107 238.281,259.899 238.281 L 263.158 238.281 264.249 241.113 C 265.409 244.126,269.486 253.874,269.821 254.438 C 269.931 254.623,271.449 251.195,273.194 246.821 C 274.939 242.446,276.509 238.647,276.683 238.379 C 277.004 237.883,282.060 237.659,282.521 238.120 M235.547 250.000 L 235.547 261.719 232.422 261.719 L 229.297 261.719 229.297 250.000 L 229.297 238.281 232.422 238.281 L 235.547 238.281 235.547 250.000 M159.180 243.344 C 158.007 243.832,156.340 245.758,156.040 246.973 L 155.775 248.047 161.872 248.047 C 168.466 248.047,168.390 248.077,167.341 245.866 C 166.172 243.403,162.077 242.137,159.180 243.344 M195.817 306.038 C 197.277 305.993,198.572 305.855,198.695 305.732 C 199.033 305.394,201.325 305.919,201.654 306.409 C 201.851 306.702,201.943 306.683,201.947 306.348 C 201.950 306.079,202.217 305.859,202.539 305.859 C 202.861 305.859,203.125 306.057,203.125 306.298 C 203.125 306.578,203.301 306.608,203.613 306.380 C 204.144 305.993,210.433 306.006,210.822 306.395 C 210.954 306.526,211.281 306.451,211.550 306.228 C 211.890 305.946,212.118 305.948,212.294 306.232 C 212.449 306.483,212.804 306.512,213.207 306.306 C 213.570 306.121,214.482 306.038,215.234 306.120 C 215.986 306.202,217.832 306.344,219.336 306.435 C 220.840 306.526,223.477 306.704,225.195 306.832 C 229.168 307.128,233.144 307.408,236.133 307.602 C 237.422 307.686,238.916 307.860,239.453 307.990 C 239.990 308.120,241.924 308.403,243.750 308.619 C 245.576 308.836,247.505 309.196,248.036 309.421 C 248.729 309.713,249.044 309.704,249.149 309.390 C 249.253 309.076,249.438 309.071,249.802 309.372 C 250.080 309.604,250.459 309.758,250.642 309.715 C 251.648 309.481,256.056 311.392,255.589 311.859 C 255.451 311.997,255.544 312.109,255.794 312.109 C 256.045 312.109,256.250 311.913,256.250 311.672 C 256.250 311.432,256.895 311.728,257.684 312.329 C 258.473 312.931,259.008 313.245,258.873 313.027 C 258.738 312.809,258.874 312.630,259.175 312.630 C 259.476 312.630,259.711 312.733,259.698 312.858 C 259.553 314.204,259.776 314.589,260.292 313.883 C 260.657 313.384,260.904 313.301,261.096 313.613 C 261.249 313.860,261.188 314.063,260.961 314.063 C 260.733 314.063,260.547 314.361,260.547 314.727 C 260.547 315.243,260.651 315.286,261.016 314.922 C 261.654 314.284,262.109 314.333,262.109 315.039 C 262.109 315.361,261.932 315.625,261.715 315.625 C 261.474 315.625,261.500 315.911,261.782 316.363 C 262.172 316.986,262.078 317.254,261.178 318.088 C 260.592 318.631,260.085 319.442,260.051 319.889 C 259.983 320.793,259.547 320.969,259.243 320.215 C 259.135 319.946,259.032 320.132,259.015 320.629 C 258.997 321.150,258.813 321.424,258.577 321.278 C 258.352 321.140,257.921 321.233,257.617 321.484 C 257.314 321.736,256.882 321.829,256.658 321.690 C 256.433 321.552,256.250 321.716,256.250 322.055 C 256.250 322.526,256.007 322.610,255.215 322.411 C 254.487 322.229,254.262 322.284,254.457 322.599 C 254.628 322.876,254.427 323.065,253.929 323.096 C 253.104 323.146,252.419 323.278,252.246 323.420 C 252.192 323.465,251.709 323.551,251.172 323.611 C 248.273 323.939,246.668 324.270,246.568 324.560 C 246.507 324.740,246.024 324.804,245.494 324.702 C 244.949 324.598,244.531 324.702,244.531 324.942 C 244.531 325.175,244.286 325.272,243.986 325.157 C 243.687 325.042,242.764 325.129,241.935 325.351 C 241.107 325.573,238.584 325.868,236.328 326.006 C 234.072 326.144,231.611 326.328,230.859 326.415 C 230.107 326.502,226.683 326.670,223.250 326.788 C 219.072 326.932,216.910 327.156,216.713 327.466 C 216.494 327.810,216.417 327.798,216.412 327.418 C 216.409 327.137,216.225 327.019,216.005 327.155 C 215.591 327.411,201.054 327.773,193.750 327.710 C 188.852 327.668,179.102 327.415,179.102 327.330 C 179.102 327.297,178.223 327.226,177.148 327.173 C 176.074 327.120,174.316 326.963,173.242 326.823 C 172.168 326.684,170.322 326.469,169.141 326.346 C 167.959 326.224,166.465 326.042,165.820 325.944 C 165.176 325.845,163.242 325.670,161.523 325.554 C 157.024 325.251,157.067 325.258,157.319 324.850 C 157.449 324.640,157.275 324.582,156.922 324.717 C 156.577 324.850,155.713 324.775,155.003 324.551 C 154.292 324.326,153.359 324.087,152.930 324.018 C 152.500 323.949,152.148 323.864,152.148 323.829 C 152.148 323.793,151.624 323.679,150.984 323.575 C 150.343 323.471,149.703 323.198,149.561 322.969 C 149.413 322.730,148.866 322.660,148.284 322.806 C 147.638 322.968,147.266 322.901,147.266 322.622 C 147.266 322.380,146.993 322.287,146.659 322.415 C 146.326 322.543,146.153 322.486,146.275 322.288 C 146.397 322.091,146.318 321.819,146.100 321.684 C 145.882 321.549,145.703 321.635,145.703 321.875 C 145.703 322.127,145.496 322.182,145.215 322.007 C 144.677 321.671,144.257 321.565,142.090 321.223 C 141.284 321.095,140.625 320.850,140.625 320.678 C 140.625 320.506,140.261 320.250,139.815 320.108 C 139.293 319.943,139.087 319.639,139.235 319.254 C 139.406 318.808,139.268 318.707,138.691 318.858 C 138.140 319.002,137.843 318.820,137.656 318.222 C 137.512 317.760,137.199 317.254,136.959 317.096 C 136.687 316.917,136.780 316.807,137.207 316.803 C 137.583 316.800,137.891 316.973,137.891 317.188 C 137.891 317.402,138.029 317.578,138.198 317.578 C 138.366 317.578,138.504 317.221,138.504 316.784 C 138.504 316.119,138.328 316.029,137.416 316.229 C 136.750 316.376,136.328 316.305,136.328 316.047 C 136.328 315.815,136.592 315.625,136.914 315.625 C 137.236 315.625,137.500 315.361,137.500 315.039 C 137.500 314.717,137.764 314.453,138.086 314.453 C 138.408 314.453,138.672 314.277,138.672 314.063 C 138.672 313.848,139.155 313.658,139.746 313.641 C 140.337 313.624,140.601 313.522,140.332 313.413 C 139.402 313.038,139.852 312.591,141.602 312.150 C 142.773 311.855,143.359 311.498,143.359 311.079 C 143.359 310.583,143.475 310.547,143.911 310.909 C 144.298 311.230,144.539 311.241,144.721 310.946 C 144.864 310.715,145.187 310.562,145.440 310.605 C 145.692 310.648,146.689 310.446,147.656 310.155 C 149.441 309.618,150.817 309.399,152.930 309.315 C 153.574 309.289,154.324 309.093,154.595 308.879 C 154.867 308.665,155.834 308.425,156.744 308.346 C 158.272 308.214,161.726 307.882,164.063 307.644 C 164.600 307.589,165.127 307.500,165.234 307.445 C 165.481 307.321,169.235 307.127,176.953 306.839 C 186.906 306.469,189.100 306.343,189.317 306.126 C 189.430 306.013,190.100 306.013,190.806 306.128 C 191.598 306.257,192.201 306.154,192.382 305.861 C 192.553 305.585,192.778 305.539,192.920 305.752 C 193.054 305.954,194.358 306.082,195.817 306.038 " stroke="none" fill="#fbfbfb" fill-rule="evenodd"></path><path id="path2" d="M208.016 111.961 C 206.807 113.170,208.235 115.117,209.668 114.214 C 210.865 113.460,210.360 111.328,208.984 111.328 C 208.800 111.328,208.365 111.613,208.016 111.961 M197.898 120.020 C 196.910 120.718,192.602 123.959,188.326 127.222 C 184.049 130.484,180.444 133.048,180.314 132.918 C 180.184 132.788,180.078 131.133,180.078 129.239 C 180.078 125.099,180.452 125.311,173.438 125.473 L 168.555 125.586 168.359 134.097 C 168.231 139.682,168.016 142.704,167.732 142.886 C 164.124 145.209,149.959 155.848,149.783 156.366 C 149.233 157.990,150.101 158.203,157.269 158.203 L 164.051 158.203 164.154 169.758 L 164.258 181.314 166.122 179.890 C 169.821 177.066,174.648 174.340,188.281 167.380 C 213.427 154.541,222.123 147.719,224.542 138.933 C 225.066 137.031,225.513 137.430,207.762 123.949 C 199.855 117.944,200.482 118.194,197.898 120.020 M223.506 121.217 C 221.885 122.942,222.873 125.391,225.190 125.391 C 227.633 125.391,228.666 122.773,226.879 121.109 C 225.756 120.062,224.554 120.101,223.506 121.217 M219.308 136.551 C 220.741 137.985,219.196 140.350,217.370 139.518 C 216.051 138.918,215.796 138.088,216.568 136.911 C 217.295 135.800,218.411 135.654,219.308 136.551 M211.250 145.391 C 212.513 146.653,211.096 148.788,209.361 148.238 C 208.409 147.936,207.948 146.285,208.598 145.503 C 209.178 144.803,210.602 144.743,211.250 145.391 M235.938 149.715 C 231.366 157.060,219.283 166.991,204.995 175.147 L 203.711 175.881 205.313 176.571 C 210.133 178.650,210.542 180.093,210.545 195.035 L 210.547 207.063 222.792 206.949 C 232.468 206.860,235.173 206.723,235.683 206.300 C 236.270 205.812,236.328 203.618,236.328 181.992 L 236.328 158.221 243.220 158.114 C 253.171 157.960,253.195 157.786,244.148 151.191 C 237.349 146.235,238.027 146.357,235.938 149.715 M192.355 152.814 C 192.869 153.547,192.880 153.793,192.429 154.474 C 191.416 156.002,189.453 155.519,189.453 153.741 C 189.453 151.936,191.322 151.339,192.355 152.814 M178.125 163.672 C 178.559 164.106,178.906 164.974,178.906 165.625 C 178.906 166.276,178.559 167.144,178.125 167.578 C 176.483 169.220,173.438 168.031,173.438 165.748 C 173.438 163.365,176.474 162.021,178.125 163.672 M187.305 183.747 C 174.794 193.216,174.908 202.103,187.593 206.078 C 190.499 206.989,190.260 208.116,190.142 194.023 L 190.039 181.678 187.305 183.747 M194.141 185.328 L 194.141 187.843 195.853 188.099 C 198.849 188.549,199.008 188.420,199.139 185.445 L 199.254 182.813 196.698 182.813 L 194.141 182.813 194.141 185.328 M201.563 185.580 L 201.563 188.347 204.004 188.200 L 206.445 188.052 206.561 185.432 L 206.676 182.813 204.119 182.813 L 201.563 182.813 201.563 185.580 M169.228 186.155 C 167.557 187.325,168.599 189.844,170.753 189.844 C 172.012 189.844,172.656 189.164,172.656 187.835 C 172.656 186.808,171.472 185.547,170.508 185.547 C 170.281 185.547,169.705 185.821,169.228 186.155 M194.141 193.164 L 194.141 195.703 196.680 195.703 L 199.219 195.703 199.219 193.164 L 199.219 190.625 196.680 190.625 L 194.141 190.625 194.141 193.164 M201.563 193.164 L 201.563 195.703 204.102 195.703 L 206.641 195.703 206.641 193.164 L 206.641 190.625 204.102 190.625 L 201.563 190.625 201.563 193.164 M230.939 227.823 C 228.171 228.540,227.754 232.765,230.335 233.941 C 233.183 235.239,236.686 233.333,236.173 230.765 C 235.677 228.290,233.614 227.130,230.939 227.823 M248.828 229.137 C 245.793 230.450,243.750 233.764,243.750 237.376 C 243.750 238.652,243.722 238.672,241.992 238.672 L 240.234 238.672 240.234 240.820 L 240.234 242.969 241.947 242.969 C 244.170 242.969,244.129 242.776,244.135 253.223 L 244.141 261.719 247.070 261.719 L 250.000 261.719 250.000 252.344 L 250.000 242.969 253.125 242.969 L 256.250 242.969 256.250 240.820 L 256.250 238.672 253.125 238.672 L 250.000 238.672 250.000 236.914 C 250.000 234.230,251.002 233.424,253.957 233.733 C 255.218 233.865,256.252 233.843,256.254 233.685 C 256.257 233.528,256.515 232.552,256.829 231.518 L 257.399 229.638 256.056 229.077 C 254.319 228.351,250.573 228.383,248.828 229.137 M229.389 249.902 L 229.492 261.523 232.324 261.638 L 235.156 261.753 235.156 250.017 L 235.156 238.281 232.221 238.281 L 229.285 238.281 229.389 249.902 M257.031 238.656 C 257.031 238.881,258.150 241.657,259.518 244.825 C 260.886 247.994,263.083 253.081,264.401 256.130 C 267.047 262.253,267.067 262.341,266.105 263.529 C 264.654 265.319,262.289 265.727,259.908 264.597 C 259.170 264.247,258.515 264.027,258.452 264.109 C 257.812 264.948,256.678 267.713,256.855 268.000 C 257.892 269.677,262.728 270.642,265.728 269.770 C 269.469 268.683,270.171 267.577,276.429 252.930 C 283.492 236.398,283.085 238.281,279.598 238.281 L 276.721 238.281 273.456 246.484 C 271.660 250.996,270.074 254.688,269.930 254.688 C 269.658 254.688,268.928 253.019,265.232 243.945 L 263.005 238.477 260.018 238.362 C 258.130 238.290,257.031 238.398,257.031 238.656 " stroke="none" fill="#7ecbdb" fill-rule="evenodd"></path><path id="path3" d="M168.134 134.180 C 168.134 138.691,168.191 140.484,168.260 138.162 C 168.330 135.841,168.329 132.150,168.260 129.959 C 168.190 127.769,168.134 129.668,168.134 134.180 M180.141 129.371 C 180.106 131.239,180.210 132.848,180.371 132.949 C 180.532 133.049,180.615 132.048,180.555 130.726 C 180.360 126.418,180.204 125.908,180.141 129.371 M226.746 156.348 L 224.414 158.789 226.855 156.458 C 228.198 155.175,229.297 154.077,229.297 154.016 C 229.297 153.728,228.911 154.080,226.746 156.348 M163.839 166.797 C 163.839 171.631,163.895 173.608,163.963 171.191 C 164.032 168.774,164.032 164.819,163.963 162.402 C 163.895 159.985,163.839 161.963,163.839 166.797 M236.449 175.195 C 236.451 176.484,236.524 176.965,236.611 176.263 C 236.698 175.560,236.696 174.506,236.607 173.919 C 236.518 173.332,236.447 173.906,236.449 175.195 M163.778 177.344 C 163.778 178.311,163.854 178.706,163.948 178.223 C 164.041 177.739,164.041 176.948,163.948 176.465 C 163.854 175.981,163.778 176.377,163.778 177.344 M210.330 194.531 C 210.330 201.299,210.383 204.067,210.448 200.684 C 210.514 197.300,210.514 191.763,210.448 188.379 C 210.383 184.995,210.330 187.764,210.330 194.531 M162.671 187.598 L 161.523 188.867 162.793 187.720 C 163.491 187.089,164.063 186.518,164.063 186.450 C 164.063 186.149,163.740 186.414,162.671 187.598 M197.173 190.511 C 197.658 190.604,198.362 190.601,198.735 190.503 C 199.108 190.405,198.711 190.329,197.852 190.333 C 196.992 190.337,196.687 190.417,197.173 190.511 M202.628 190.516 C 203.321 190.603,204.552 190.604,205.362 190.519 C 206.173 190.435,205.605 190.364,204.102 190.363 C 202.598 190.361,201.935 190.430,202.628 190.516 M174.309 196.094 C 174.309 196.846,174.390 197.153,174.488 196.777 C 174.586 196.401,174.586 195.786,174.488 195.410 C 174.390 195.034,174.309 195.342,174.309 196.094 M188.379 206.910 C 188.755 207.008,189.370 207.008,189.746 206.910 C 190.122 206.812,189.814 206.731,189.063 206.731 C 188.311 206.731,188.003 206.812,188.379 206.910 M118.928 246.289 C 118.928 254.883,118.980 258.343,119.043 253.978 C 119.105 249.613,119.105 242.582,119.042 238.353 C 118.979 234.124,118.928 237.695,118.928 246.289 M213.850 232.314 L 216.765 232.454 216.878 235.465 L 216.992 238.477 220.216 238.502 L 223.440 238.527 220.330 238.389 L 217.220 238.250 217.106 235.238 L 216.992 232.227 213.964 232.200 L 210.935 232.174 213.850 232.314 M127.051 236.225 C 128.071 236.305,129.741 236.305,130.762 236.225 C 131.782 236.144,130.947 236.078,128.906 236.078 C 126.865 236.078,126.030 236.144,127.051 236.225 M161.235 237.776 C 161.721 237.870,162.424 237.866,162.798 237.768 C 163.171 237.671,162.773 237.594,161.914 237.599 C 161.055 237.603,160.749 237.683,161.235 237.776 M179.089 238.369 C 178.981 238.651,178.943 243.273,179.004 248.640 L 179.116 258.398 179.206 248.340 L 179.297 238.281 182.004 238.281 C 184.399 238.281,184.732 238.372,184.888 239.068 C 185.035 239.723,185.056 239.707,185.013 238.971 C 184.950 237.906,179.480 237.350,179.089 238.369 M277.734 238.131 C 280.066 238.424,282.724 238.453,282.557 238.184 C 282.458 238.022,281.112 237.917,279.567 237.949 C 278.022 237.981,277.197 238.063,277.734 238.131 M207.910 238.561 C 208.501 238.651,209.468 238.651,210.059 238.561 C 210.649 238.472,210.166 238.398,208.984 238.398 C 207.803 238.398,207.319 238.472,207.910 238.561 M235.330 250.000 C 235.330 256.553,235.383 259.233,235.448 255.957 C 235.514 252.681,235.514 247.319,235.448 244.043 C 235.383 240.767,235.330 243.447,235.330 250.000 M240.003 238.819 C 239.890 239.115,239.851 240.214,239.918 241.261 L 240.039 243.164 241.797 243.196 L 243.555 243.228 241.895 243.077 L 240.234 242.926 240.234 240.820 L 240.234 238.715 242.090 238.568 L 243.945 238.422 242.078 238.352 C 240.800 238.304,240.145 238.451,240.003 238.819 M251.465 238.567 C 252.378 238.650,253.872 238.650,254.785 238.567 C 255.698 238.485,254.951 238.418,253.125 238.418 C 251.299 238.418,250.552 238.485,251.465 238.567 M138.770 241.992 C 138.775 242.852,138.855 243.157,138.948 242.671 C 139.042 242.185,139.038 241.482,138.940 241.109 C 138.842 240.735,138.766 241.133,138.770 241.992 M161.235 242.854 C 161.721 242.948,162.424 242.944,162.798 242.847 C 163.171 242.749,162.773 242.672,161.914 242.677 C 161.055 242.681,160.749 242.761,161.235 242.854 M251.465 243.255 C 252.378 243.337,253.872 243.337,254.785 243.255 C 255.698 243.173,254.951 243.105,253.125 243.105 C 251.299 243.105,250.552 243.173,251.465 243.255 M243.917 252.930 C 243.918 257.871,243.974 259.839,244.042 257.302 C 244.110 254.766,244.110 250.723,244.041 248.318 C 243.973 245.913,243.917 247.988,243.917 252.930 M127.441 247.554 C 128.677 247.632,130.698 247.632,131.934 247.554 C 133.169 247.477,132.158 247.413,129.688 247.413 C 127.217 247.413,126.206 247.477,127.441 247.554 M173.927 250.586 C 173.931 251.445,174.011 251.751,174.104 251.265 C 174.198 250.779,174.194 250.076,174.097 249.702 C 173.999 249.329,173.922 249.727,173.927 250.586 M185.315 255.469 C 185.315 259.014,185.374 260.464,185.447 258.691 C 185.519 256.919,185.519 254.019,185.447 252.246 C 185.374 250.474,185.315 251.924,185.315 255.469 M140.734 262.006 C 141.761 262.087,143.343 262.086,144.250 262.004 C 145.157 261.922,144.316 261.856,142.383 261.857 C 140.449 261.859,139.707 261.926,140.734 262.006 M192.382 305.861 C 192.201 306.154,191.598 306.257,190.806 306.128 C 190.100 306.013,189.430 306.013,189.317 306.126 C 189.100 306.343,186.906 306.469,176.953 306.839 C 169.235 307.127,165.481 307.321,165.234 307.445 C 165.127 307.500,164.600 307.589,164.063 307.644 C 161.726 307.882,158.272 308.214,156.744 308.346 C 155.834 308.425,154.867 308.665,154.595 308.879 C 154.324 309.093,153.574 309.289,152.930 309.315 C 150.817 309.399,149.441 309.618,147.656 310.155 C 146.689 310.446,145.692 310.648,145.440 310.605 C 145.187 310.562,144.864 310.715,144.721 310.946 C 144.539 311.241,144.298 311.230,143.911 310.909 C 143.475 310.547,143.359 310.583,143.359 311.079 C 143.359 311.498,142.773 311.855,141.602 312.150 C 139.852 312.591,139.402 313.038,140.332 313.413 C 140.601 313.522,140.337 313.624,139.746 313.641 C 139.155 313.658,138.672 313.848,138.672 314.063 C 138.672 314.277,138.408 314.453,138.086 314.453 C 137.764 314.453,137.500 314.717,137.500 315.039 C 137.500 315.361,137.236 315.625,136.914 315.625 C 136.592 315.625,136.328 315.815,136.328 316.047 C 136.328 316.305,136.750 316.376,137.416 316.229 C 138.328 316.029,138.504 316.119,138.504 316.784 C 138.504 317.221,138.366 317.578,138.198 317.578 C 138.029 317.578,137.891 317.402,137.891 317.188 C 137.891 316.973,137.583 316.800,137.207 316.803 C 136.780 316.807,136.687 316.917,136.959 317.096 C 137.199 317.254,137.512 317.760,137.656 318.222 C 137.843 318.820,138.140 319.002,138.691 318.858 C 139.268 318.707,139.406 318.808,139.235 319.254 C 139.087 319.639,139.293 319.943,139.815 320.108 C 140.261 320.250,140.625 320.506,140.625 320.678 C 140.625 320.850,141.284 321.095,142.090 321.223 C 144.257 321.565,144.677 321.671,145.215 322.007 C 145.496 322.182,145.703 322.127,145.703 321.875 C 145.703 321.635,145.882 321.549,146.100 321.684 C 146.318 321.819,146.397 322.091,146.275 322.288 C 146.153 322.486,146.326 322.543,146.659 322.415 C 146.993 322.287,147.266 322.380,147.266 322.622 C 147.266 322.901,147.638 322.968,148.284 322.806 C 148.866 322.660,149.413 322.730,149.561 322.969 C 149.703 323.198,150.343 323.471,150.984 323.575 C 151.624 323.679,152.148 323.793,152.148 323.829 C 152.148 323.864,152.500 323.949,152.930 324.018 C 153.359 324.087,154.292 324.326,155.003 324.551 C 155.713 324.775,156.577 324.850,156.922 324.717 C 157.275 324.582,157.449 324.640,157.319 324.850 C 157.067 325.258,157.024 325.251,161.523 325.554 C 163.242 325.670,165.176 325.845,165.820 325.944 C 166.465 326.042,167.959 326.224,169.141 326.346 C 170.322 326.469,172.168 326.684,173.242 326.823 C 174.316 326.963,176.074 327.120,177.148 327.173 C 178.223 327.226,179.102 327.297,179.102 327.330 C 179.102 327.415,188.852 327.668,193.750 327.710 C 201.054 327.773,215.591 327.411,216.005 327.155 C 216.225 327.019,216.409 327.137,216.412 327.418 C 216.417 327.798,216.494 327.810,216.713 327.466 C 216.910 327.156,219.072 326.932,223.250 326.788 C 226.683 326.670,230.107 326.502,230.859 326.415 C 231.611 326.328,234.072 326.144,236.328 326.006 C 238.584 325.868,241.107 325.573,241.935 325.351 C 242.764 325.129,243.687 325.042,243.986 325.157 C 244.286 325.272,244.531 325.175,244.531 324.942 C 244.531 324.702,244.949 324.598,245.494 324.702 C 246.024 324.804,246.507 324.740,246.568 324.560 C 246.668 324.270,248.273 323.939,251.172 323.611 C 251.709 323.551,252.192 323.465,252.246 323.420 C 252.419 323.278,253.104 323.146,253.929 323.096 C 254.427 323.065,254.628 322.876,254.457 322.599 C 254.262 322.284,254.487 322.229,255.215 322.411 C 256.007 322.610,256.250 322.526,256.250 322.055 C 256.250 321.716,256.433 321.552,256.658 321.690 C 256.882 321.829,257.314 321.736,257.617 321.484 C 257.921 321.233,258.352 321.140,258.577 321.278 C 258.813 321.424,258.997 321.150,259.015 320.629 C 259.032 320.132,259.135 319.946,259.243 320.215 C 259.547 320.969,259.983 320.793,260.051 319.889 C 260.085 319.442,260.592 318.631,261.178 318.088 C 262.078 317.254,262.172 316.986,261.782 316.363 C 261.500 315.911,261.474 315.625,261.715 315.625 C 261.932 315.625,262.109 315.361,262.109 315.039 C 262.109 314.333,261.654 314.284,261.016 314.922 C 260.651 315.286,260.547 315.243,260.547 314.727 C 260.547 314.361,260.733 314.063,260.961 314.063 C 261.188 314.063,261.249 313.860,261.096 313.613 C 260.904 313.301,260.657 313.384,260.292 313.883 C 259.776 314.589,259.553 314.204,259.698 312.858 C 259.711 312.733,259.476 312.630,259.175 312.630 C 258.874 312.630,258.738 312.809,258.873 313.027 C 259.008 313.245,258.473 312.931,257.684 312.329 C 256.895 311.728,256.250 311.432,256.250 311.672 C 256.250 311.913,256.045 312.109,255.794 312.109 C 255.544 312.109,255.451 311.997,255.589 311.859 C 256.056 311.392,251.648 309.481,250.642 309.715 C 250.459 309.758,250.080 309.604,249.802 309.372 C 249.438 309.071,249.253 309.076,249.149 309.390 C 249.044 309.704,248.729 309.713,248.036 309.421 C 247.505 309.196,245.576 308.836,243.750 308.619 C 241.924 308.403,239.990 308.120,239.453 307.990 C 238.916 307.860,237.422 307.686,236.133 307.602 C 233.144 307.408,229.168 307.128,225.195 306.832 C 223.477 306.704,220.840 306.526,219.336 306.435 C 217.832 306.344,215.986 306.202,215.234 306.120 C 214.482 306.038,213.570 306.121,213.207 306.306 C 212.804 306.512,212.449 306.483,212.294 306.232 C 212.118 305.948,211.890 305.946,211.550 306.228 C 211.281 306.451,210.954 306.526,210.822 306.395 C 210.433 306.006,204.144 305.993,203.613 306.380 C 203.301 306.608,203.125 306.578,203.125 306.298 C 203.125 306.057,202.861 305.859,202.539 305.859 C 202.217 305.859,201.950 306.079,201.947 306.348 C 201.943 306.683,201.851 306.702,201.654 306.409 C 201.325 305.919,199.033 305.394,198.695 305.732 C 198.308 306.119,193.177 306.137,192.920 305.752 C 192.778 305.539,192.553 305.585,192.382 305.861 " stroke="none" fill="#cfd4d5" fill-rule="evenodd"></path><path id="path4" d="M219.712 152.051 L 217.773 154.102 219.824 152.163 C 221.730 150.362,222.054 150.000,221.763 150.000 C 221.701 150.000,220.778 150.923,219.712 152.051 M225.181 152.832 L 223.242 154.883 225.293 152.944 C 227.199 151.143,227.523 150.781,227.231 150.781 C 227.170 150.781,226.247 151.704,225.181 152.832 M180.469 184.570 C 179.520 185.537,178.831 186.328,178.939 186.328 C 179.046 186.328,179.911 185.537,180.859 184.570 C 181.808 183.604,182.497 182.813,182.389 182.813 C 182.282 182.813,181.418 183.604,180.469 184.570 M178.906 200.903 C 178.906 200.971,179.478 201.542,180.176 202.173 L 181.445 203.320 180.298 202.051 C 179.229 200.867,178.906 200.602,178.906 200.903 M186.523 206.250 C 186.380 206.482,186.807 206.629,187.575 206.613 C 188.652 206.590,188.737 206.530,188.086 206.250 C 187.026 205.795,186.805 205.795,186.523 206.250 M124.297 231.150 C 126.166 231.221,129.330 231.222,131.328 231.151 C 133.326 231.080,131.797 231.021,127.930 231.021 C 124.063 231.020,122.428 231.078,124.297 231.150 M125.157 241.797 C 125.157 245.127,125.217 246.489,125.290 244.824 C 125.364 243.159,125.364 240.435,125.290 238.770 C 125.217 237.104,125.157 238.467,125.157 241.797 M223.047 240.820 L 223.047 242.969 219.922 242.969 L 216.797 242.969 216.884 249.121 L 216.970 255.273 217.089 249.316 L 217.208 243.359 220.323 243.359 L 223.438 243.359 223.438 241.016 C 223.438 239.727,223.350 238.672,223.242 238.672 C 223.135 238.672,223.047 239.639,223.047 240.820 M145.034 241.992 C 145.037 243.066,145.112 243.459,145.202 242.866 C 145.292 242.272,145.290 241.393,145.197 240.913 C 145.104 240.432,145.031 240.918,145.034 241.992 M190.723 243.238 C 191.099 243.336,191.714 243.336,192.090 243.238 C 192.466 243.140,192.158 243.059,191.406 243.059 C 190.654 243.059,190.347 243.140,190.723 243.238 M207.910 243.249 C 208.501 243.338,209.468 243.338,210.059 243.249 C 210.649 243.159,210.166 243.086,208.984 243.086 C 207.803 243.086,207.319 243.159,207.910 243.249 M167.969 247.647 C 167.969 247.874,165.404 248.075,161.621 248.145 L 155.273 248.263 161.816 248.350 C 167.411 248.425,168.359 248.353,168.359 247.852 C 168.359 247.529,168.271 247.266,168.164 247.266 C 168.057 247.266,167.969 247.437,167.969 247.647 M197.036 254.883 C 197.037 258.750,197.095 260.279,197.166 258.281 C 197.237 256.283,197.237 253.119,197.166 251.250 C 197.094 249.381,197.036 251.016,197.036 254.883 M125.169 252.857 C 125.061 253.139,125.029 255.293,125.098 257.642 L 125.225 261.914 125.308 257.338 L 125.391 252.762 129.395 252.635 L 133.398 252.509 129.382 252.426 C 126.365 252.364,125.317 252.471,125.169 252.857 M169.531 255.200 C 169.531 255.268,170.103 255.839,170.801 256.470 L 172.070 257.617 170.923 256.348 C 169.854 255.164,169.531 254.899,169.531 255.200 M161.626 261.995 C 162.112 262.088,162.815 262.085,163.188 261.987 C 163.562 261.889,163.164 261.813,162.305 261.817 C 161.445 261.822,161.140 261.902,161.626 261.995 " stroke="none" fill="#7f8c9d" fill-rule="evenodd"></path></g></svg>
